<svg width="1181.342" height="2562.039" xmlns="http://www.w3.org/2000/svg"><path style="fill:#000" d="M240 2594.599c-51.698-2.605-92.754-15.107-122.618-37.34-46.171-34.374-68.459-84.728-71.965-162.592-.577-12.834-.916-506.334-.752-1096.667.272-977.174.49-1074.886 2.444-1090.667 7.127-57.583 21.664-90.896 53.53-122.666 20.668-20.607 46.534-34.354 81.699-43.42 32.314-8.333 8.389-7.914 451.814-7.914 274.339 0 408.67.453 418.04 1.41 39.705 4.05 77.625 17.515 102.574 36.42 39.106 29.633 61.153 72.814 68.845 134.837 2.178 17.56 2.318 74.844 2.352 966.667.042 1077.954-.446 1239.751-3.804 1260-8.303 50.08-22.462 80.065-51.837 109.783-23.298 23.568-52.37 38.195-91.655 46.112-34.606 6.974-13.228 6.636-430 6.795-214.867.082-398.767-.26-408.667-.758z" transform="translate(-44.624 -33.33)"/></svg>