<svg width="725" height="714" viewBox="0 0 725 714" fill="none" xmlns="http://www.w3.org/2000/svg">
<path d="M525.001 633.473L458.037 632.602L457.144 631.036V281.001L329.5 281.001L325.895 281.001V191.024L328.573 186.09L395.697 133.048L724.107 133.173L724.999 134.739V223.332L721.428 228.627L655.357 282.284L595.536 281.416L594.643 282.74V575.483L591.072 580.778L525.001 633.473ZM587.5 576.443V496.516L584.822 497.599L530.358 541.752L529.465 543.075V621.076L530.358 621.678L587.5 576.443ZM587.5 487.85V407.923L584.822 409.005L530.358 454.121L529.465 455.445V533.446L530.358 534.048L587.5 487.85ZM587.5 400.219V320.293L584.822 321.375L530.358 366.491L529.465 366.852V445.815L530.358 446.418L587.5 400.219ZM587.5 312.589V280.811L530.358 280.787L529.465 282.111V357.222L530.358 357.824L587.5 312.589ZM717.857 224.292V144.365L715.178 145.448L660.714 190.564L659.821 191.887V269.888L660.714 270.49L717.857 224.292ZM709.821 142.797V140.871L655.357 141.691L601.786 184.52V186.446L657.143 185.266L709.821 142.797ZM643.75 142.528L644.643 141.205L590.179 141.061L536.608 183.891V186.78L591.072 185.96L643.75 142.528ZM578.572 141.899L579.465 141.538L525.001 141.395L471.429 184.224V186.15L525.893 185.331L578.572 141.899ZM513.393 142.232L514.286 140.909L459.822 140.765L406.251 183.595V186.484L460.715 185.664L513.393 142.232ZM448.215 142.566L449.108 141.242L394.644 141.099L341.073 183.928V185.854L395.537 185.035L448.215 142.566Z" fill="white"/>
<path fill-rule="evenodd" clip-rule="evenodd" d="M66.9639 632.57L329.462 633.404L395.534 579.746L399.105 575.414V310.597L398.212 309.032L199.999 308.226L139.285 357.793L138.392 357.191V282.079L139.5 280.999L329.569 280.999L395.534 228.262L399.105 222.967V182.171L391.962 185.012V223.927L334.82 270.125L333.927 269.523V191.523L334.82 190.199L389.284 145.083L391.962 144.001V144.012L399.105 141.111V134.374L398.378 133.043L134.821 132.336L68.7496 185.031L65.1782 190.325V224.029L2.67856 273.355L0 278.289V543.106L1.7857 544.311L65.1782 544.698V630.403L66.9639 632.57ZM391.962 495.485V575.411L334.82 621.61L333.927 621.007V543.007L334.82 541.683L389.284 496.567L391.962 495.485ZM391.962 407.854V487.781L334.82 533.979L333.927 533.377V454.413L334.82 454.053L389.284 408.937L391.962 407.854ZM261.606 496.152V535.633L260.713 536.957L210.713 537.899V535.01L260.713 495.549L261.606 496.152ZM253.57 492.658L252.677 493.981L199.999 536.45L145.535 537.27V535.344L199.106 492.514L253.57 492.658ZM261.606 456.67V483.633L260.713 483.994L138.392 484.303L139.285 456.979L261.606 456.67ZM188.392 492.028L187.499 493.352L134.821 536.783L80.3567 537.603V535.677L133.928 492.848L188.392 492.028ZM391.962 320.224V400.151L334.82 445.386L333.927 445.747V366.783L334.82 365.459L389.284 321.306L391.962 320.224ZM131.249 486.226L130.356 487.55L74.9996 532.064L73.2139 532.785V454.785L74.1067 453.461L128.571 409.308L131.249 408.225V486.226ZM383.926 315.767V317.693L331.248 361.125L275.891 361.342V359.416L329.462 316.586L383.926 315.767ZM131.249 319.632V399.559L74.1067 445.757L73.2139 445.155V367.154L74.1067 365.831L128.571 320.714L131.249 319.632ZM318.748 317.063L317.855 317.424L265.177 360.856L210.713 361.675V359.749L264.284 316.92L318.748 317.063ZM253.57 316.434L252.677 317.758L199.999 361.189L145.535 362.009V359.12L199.106 316.291L253.57 316.434ZM131.249 280.15V311.928L74.1067 357.164L73.2139 357.525V281.45L74.1067 281.089L131.249 280.15ZM65.1782 232.696V272.178V273.141L15.1785 274.083V271.194L65.1782 231.733V232.696ZM383.926 140.506V142.432L331.248 184.901L275.891 186.081V184.155L329.462 141.326L383.926 140.506ZM318.748 140.84L317.855 142.164L265.177 185.595L210.713 186.415V183.526L264.284 140.696L318.748 140.84ZM253.57 141.173L252.677 141.534L199.999 184.966L145.535 185.785V183.859L199.106 141.03L253.57 141.173ZM188.392 140.544L187.499 141.868L134.821 185.299L80.3567 186.119V183.23L133.928 140.4L188.392 140.544Z" fill="white"/>
</svg>
